<svg xmlns="http://www.w3.org/2000/svg" width="90" height="20">
  <path d="M90,3C90,1.344 88.656,0 87,0L3,0C1.344,0 0,1.344 0,3L0,17C0,18.656 1.344,20 3,20L87,20C88.656,20 90,18.656 90,17L90,3Z" style="fill:rgb(52,73,94);"/>
    <path d="M90,3C90,1.344 88.656,0 87,0L40,0C38.344,0 37,1.344 37,3L37,17C37,18.656 38.344,20 40,20L87,20C88.656,20 90,18.656 90,17L90,3Z" style="fill:rgb(39,174,96);"/>
    <rect x="37" y="0" width="4" height="20" style="fill:rgb(39,174,96);"/>
    <g>
        <g transform="matrix(1,0,0,1,6.147,14)">
            <text x="0px" y="0px" style="font-family:'Verdana';font-size:11px;fill:white;">build</text>
        </g>
        <g transform="matrix(1,0,0,1,41.623,14)">
            <text x="0px" y="0px" style="font-family:'Verdana';font-size:11px;fill:white;">passing</text>
        </g>
    </g>
</svg>
